<svg width="67" height="90" viewBox="0 0 67 90" fill="none" xmlns="http://www.w3.org/2000/svg">
<path d="M62.3259 64.0815C61.7423 72.3382 58.4 78.4752 52.2989 82.4924C46.283 86.5156 38.5508 88.1933 29.1023 87.5255C23.4844 87.1284 13.8346 82.5537 12.1053 80.8375C10.376 79.1214 7.75557 76.5203 5.75181 71.2467C3.74805 65.9731 4.57638 58.7167 4.57638 58.7167C4.57638 58.7167 5.95984 64.1223 7.91791 66.38C9.87599 68.6377 11.7903 70.8591 13.8554 71.8195C15.9205 72.7799 20.0757 73.6278 22.3439 74.2159C24.7032 74.7248 26.9043 75.0515 28.9472 75.1959C33.8842 75.5448 38.0242 75.0675 41.3671 73.7639C44.8011 72.3813 46.6866 69.3065 47.0235 64.5398C46.1618 58.5762 41.6792 57.4251 40.1479 56.7396C38.6167 56.0542 34.0263 54.1683 29.2406 52.889C25.3792 51.8462 20.3817 49.9317 16.4713 48.3721C10.8013 45.2982 9.62818 43.0766 7.2 39.9108C4.77181 36.7451 3.81615 31.502 4.22525 25.7138C4.8389 17.0315 9.32451 9.69211 15.4626 6.3619C21.6918 2.95258 27.4255 2.15933 34.7459 2.67672C39.8532 3.03769 46.5422 8.34435 48.7541 9.75118C50.9661 11.158 47.0157 9.6467 47.8511 10.1772C48.6865 10.7076 46.0259 8.98745 46.0259 8.98745C46.0259 8.98745 48.0621 7.69351 44.3445 7.43076C40.627 7.16801 47.3765 10.0787 47.171 10.1291C46.9654 10.1795 45.5632 9.52565 44.7427 9.46766C43.9223 9.40967 41.1712 10.4136 35.6785 11.5112C30.1857 12.6087 28.8984 12.7549 26.1134 15.4347C23.3284 18.1144 20.8991 20.2197 20.6464 23.7948C20.3516 27.9657 21.7674 30.9315 24.8937 32.6923C28.1111 34.374 31.7297 35.8274 35.7493 37.0525C39.1851 38.0653 43.0711 39.3665 47.4071 40.9561C51.7432 42.5458 55.4112 45.1148 58.4111 48.6631C61.5022 52.1323 62.8071 57.2718 62.3259 64.0815Z" fill="#D15825"/>
<path d="M12.537 12.7081C9.9085 14.235 5.21981 19.9465 7.49316 30.5774C6.96238 27.1144 7.22807 18.6925 12.537 12.7081Z" fill="#EBEBEB"/>
<path d="M50.695 48.6542C54.8238 52.9195 61.3562 64.5345 54.4555 76.8717C58.0809 72.1039 62.4044 59.7855 50.695 48.6542Z" fill="#EBEBEB"/>
<path d="M43.6254 9.23272C43.6335 9.11826 41.2644 7.97651 41.4267 7.85259C41.5891 7.72868 43.7043 8.11625 43.7043 8.11625C43.7043 8.11625 42.117 6.68005 42.199 6.49344C42.281 6.30683 44.5586 7.27788 44.5586 7.27788L42.1739 5.39688C42.1136 5.36762 43.7592 5.42826 46.645 7.42534C50.4265 10.0424 50.599 14.1418 51.9615 16.0541C53.0515 17.5839 57.9935 16.0279 59.7467 14.885C59.2422 15.7542 57.3424 17.6468 53.7792 18.2636C49.3253 19.0347 50.3307 14.6473 47.6245 11.7168C45.9637 9.91853 45.4807 10.1982 45.0703 10.1692C44.6599 10.1402 43.0678 10.479 43.0678 10.479C43.0678 10.479 40.1167 10.7295 40.0914 10.5379C40.0662 10.3462 42.5236 9.7493 42.5236 9.7493C42.5236 9.7493 41.3301 9.22004 41.3406 9.07123C41.3511 8.92243 43.6173 9.34718 43.6254 9.23272Z" fill="#6AC2A4" stroke="#A5C27B" stroke-width="0.2"/>
</svg>
