<svg width="351" height="113" viewBox="0 0 351 113" fill="none" xmlns="http://www.w3.org/2000/svg">
<path d="M62.3259 64.0815C61.7423 72.3382 58.4 78.4752 52.2989 82.4924C46.283 86.5156 38.5508 88.1933 29.1023 87.5255C23.4844 87.1284 13.8346 82.5537 12.1053 80.8375C10.376 79.1214 7.75557 76.5203 5.75181 71.2467C3.74805 65.9731 4.57638 58.7167 4.57638 58.7167C4.57638 58.7167 5.95984 64.1223 7.91791 66.38C9.87599 68.6377 11.7903 70.8591 13.8554 71.8195C15.9205 72.7799 20.0757 73.6278 22.3439 74.2159C24.7032 74.7248 26.9043 75.0515 28.9472 75.1959C33.8842 75.5448 38.0242 75.0675 41.3671 73.7639C44.8011 72.3812 46.6866 69.3065 47.0235 64.5398C46.1618 58.5762 41.6792 57.4251 40.1479 56.7396C38.6167 56.0542 34.0263 54.1683 29.2406 52.889C25.3792 51.8462 20.3817 49.9317 16.4713 48.3721C10.8013 45.2982 9.62818 43.0766 7.2 39.9108C4.77181 36.7451 3.81615 31.502 4.22525 25.7138C4.8389 17.0315 9.32451 9.69211 15.4626 6.3619C21.6918 2.95258 27.4255 2.15933 34.7459 2.67672C39.8532 3.03769 46.5422 8.34435 48.7541 9.75118C50.9661 11.158 47.0157 9.6467 47.8511 10.1772C48.6865 10.7076 46.0259 8.98745 46.0259 8.98745C46.0259 8.98745 48.0621 7.69351 44.3445 7.43076C40.627 7.16801 47.3765 10.0787 47.171 10.1291C46.9654 10.1795 45.5632 9.52565 44.7427 9.46766C43.9223 9.40967 41.1712 10.4136 35.6785 11.5112C30.1857 12.6087 28.8984 12.7549 26.1134 15.4347C23.3284 18.1144 20.8991 20.2197 20.6464 23.7948C20.3516 27.9657 21.7674 30.9315 24.8937 32.6923C28.1111 34.374 31.7297 35.8274 35.7493 37.0525C39.1851 38.0653 43.0711 39.3665 47.4071 40.9561C51.7432 42.5458 55.4112 45.1148 58.4111 48.6631C61.5022 52.1323 62.8071 57.2718 62.3259 64.0815Z" fill="#D15825"/>
<path d="M12.537 12.7081C9.9085 14.235 5.21981 19.9465 7.49316 30.5774C6.96238 27.1144 7.22807 18.6925 12.537 12.7081Z" fill="#EBEBEB"/>
<path d="M50.695 48.6542C54.8238 52.9195 61.3562 64.5345 54.4555 76.8717C58.0809 72.1039 62.4044 59.7855 50.695 48.6542Z" fill="#EBEBEB"/>
<path d="M43.6254 9.23272C43.6335 9.11826 41.2644 7.97651 41.4267 7.85259C41.5891 7.72868 43.7043 8.11625 43.7043 8.11625C43.7043 8.11625 42.117 6.68005 42.199 6.49344C42.281 6.30683 44.5586 7.27788 44.5586 7.27788L42.1739 5.39688C42.1136 5.36762 43.7592 5.42826 46.645 7.42534C50.4265 10.0424 50.599 14.1418 51.9615 16.0541C53.0515 17.5839 57.9935 16.0279 59.7467 14.885C59.2422 15.7542 57.3424 17.6468 53.7792 18.2636C49.3253 19.0347 50.3307 14.6473 47.6245 11.7168C45.9637 9.91853 45.4807 10.1982 45.0703 10.1692C44.6599 10.1402 43.0678 10.479 43.0678 10.479C43.0678 10.479 40.1167 10.7295 40.0914 10.5379C40.0662 10.3462 42.5236 9.7493 42.5236 9.7493C42.5236 9.7493 41.3301 9.22004 41.3406 9.07123C41.3511 8.92243 43.6173 9.34718 43.6254 9.23272Z" fill="#6AC2A4" stroke="#A5C27B" stroke-width="0.2"/>
<path d="M137.818 55.3888C137.818 63.2395 135.727 70.4501 131.546 77.0208C127.364 83.5061 120.708 86.7488 111.578 86.7488C103.13 86.7488 96.9857 83.6341 93.1457 77.4048V103.773H105.562V112.733H72.6657V103.773H82.0097V37.0848H72.2817V28.2528H93.1457V39.9008C94.8524 36.4875 97.2844 33.5008 100.442 30.9408C103.599 28.3808 107.823 27.1008 113.114 27.1008C120.452 27.1008 126.383 29.6181 130.906 34.6528C135.514 39.6021 137.818 46.5141 137.818 55.3888ZM126.042 56.4128C126.042 49.8421 124.506 44.8501 121.434 41.4368C118.447 38.0235 114.564 36.3168 109.786 36.3168C104.922 36.3168 100.996 38.2368 98.0097 42.0768C95.0231 45.9168 93.4444 50.0555 93.2737 54.4928L93.1457 61.1488C93.1457 65.9275 94.6817 69.8528 97.7537 72.9248C100.826 75.9968 104.623 77.5328 109.146 77.5328C114.863 77.5328 119.087 75.5275 121.818 71.5168C124.634 67.4208 126.042 62.3861 126.042 56.4128Z" fill="white"/>
<path d="M154.799 14.8128V1.62878H166.447V14.8128H154.799ZM176.047 85.4688H146.223V76.7648H155.567V37.0848H145.839V28.2528H166.831V76.7648H176.047V85.4688Z" fill="white"/>
<path d="M234.432 65.6288C233.749 70.6635 231.488 75.4421 227.648 79.9648C223.893 84.4875 217.877 86.7488 209.6 86.7488C201.578 86.7488 195.093 84.2741 190.144 79.3248C185.28 74.2901 182.848 67.1221 182.848 57.8208C182.848 49.2021 185.28 41.9488 190.144 36.0608C195.008 30.0875 201.792 27.1008 210.496 27.1008C214.08 27.1008 217.536 27.5275 220.864 28.3808C224.192 29.2341 227.349 30.7275 230.336 32.8608L232.64 47.7088L223.552 48.7328L221.504 39.1328C218.261 37.2555 214.549 36.3168 210.368 36.3168C204.992 36.3168 201.024 38.2795 198.464 42.2048C195.904 46.0448 194.624 51.0368 194.624 57.1808C194.624 63.5808 195.989 68.5728 198.72 72.1568C201.45 75.7408 205.461 77.5328 210.752 77.5328C218.688 77.5328 223.424 72.9248 224.96 63.7088L234.432 65.6288Z" fill="white"/>
<path d="M294.703 68.5728C294.105 73.5221 291.673 77.7888 287.407 81.3728C283.14 84.9568 277.337 86.7488 269.999 86.7488C261.721 86.7488 255.023 84.2741 249.903 79.3248C244.783 74.3755 242.223 67.2075 242.223 57.8208C242.223 48.9461 244.612 41.6075 249.391 35.8048C254.169 30.0021 260.783 27.1008 269.231 27.1008C277.081 27.1008 283.183 29.5328 287.535 34.3968C291.887 39.2608 294.105 45.1488 294.191 52.0608C294.191 54.3648 293.935 56.7968 293.423 59.3568H253.999C254.511 71.4741 260.1 77.5328 270.767 77.5328C275.204 77.5328 278.532 76.4661 280.751 74.3328C283.055 72.1995 284.591 69.6395 285.359 66.6528L294.703 68.5728ZM282.543 51.8048C282.884 48.0501 281.945 44.4661 279.727 41.0528C277.593 37.5541 274.009 35.8048 268.975 35.8048C264.281 35.8048 260.74 37.3835 258.351 40.5408C256.047 43.6128 254.639 47.3675 254.127 51.8048H282.543Z" fill="white"/>
<path d="M350.976 68.7008C350.976 74.4181 348.586 78.8555 343.808 82.0128C339.114 85.1701 333.141 86.7488 325.888 86.7488C317.098 86.7488 309.632 84.8715 303.488 81.1168L305.28 67.2928L314.112 68.1888L313.856 75.6128C315.562 76.4661 317.397 77.0635 319.36 77.4048C321.408 77.7461 323.413 77.9168 325.376 77.9168C329.045 77.9168 332.33 77.2341 335.232 75.8688C338.218 74.5035 339.712 72.3701 339.712 69.4688C339.712 66.6528 338.517 64.6901 336.128 63.5808C333.738 62.3861 330.752 61.4901 327.168 60.8928C323.669 60.2955 320.17 59.5701 316.672 58.7168C313.173 57.7781 310.229 56.2421 307.84 54.1088C305.45 51.8901 304.256 48.5621 304.256 44.1248C304.256 37.7248 306.602 33.2875 311.296 30.8128C316.074 28.3381 321.152 27.1008 326.528 27.1008C330.453 27.1008 334.122 27.6128 337.536 28.6368C341.034 29.5755 344.192 30.8128 347.008 32.3488L348.288 46.1728L339.328 47.1968L338.048 38.2368C334.549 36.6155 330.88 35.8048 327.04 35.8048C323.882 35.8048 321.28 36.4021 319.232 37.5968C317.184 38.7915 316.16 40.7541 316.16 43.4848C316.16 46.1301 317.312 48.0075 319.616 49.1168C322.005 50.2261 324.906 51.0795 328.32 51.6768C331.818 52.1888 335.274 52.9141 338.688 53.8528C342.186 54.7915 345.088 56.3701 347.392 58.5888C349.781 60.8075 350.976 64.1781 350.976 68.7008Z" fill="white"/>
</svg>
