<svg width="356" height="113" viewBox="0 0 356 113" fill="none" xmlns="http://www.w3.org/2000/svg">
<path d="M139.951 54.7539C139.951 62.9459 137.775 70.2419 133.423 76.6419C129.156 83.0419 122.543 86.2419 113.583 86.2419C105.306 86.2419 99.2896 83.2553 95.5349 77.2819V101.474H106.927V112.226H73.2629V101.474H81.8389V37.9859H72.8789V27.4899H95.5349V38.8819C97.1562 35.4686 99.5029 32.5246 102.575 30.0499C105.732 27.5753 109.956 26.3379 115.247 26.3379C122.586 26.3379 128.516 28.8553 133.039 33.8899C137.647 38.8393 139.951 45.7939 139.951 54.7539ZM125.743 56.1619C125.743 50.0179 124.335 45.3673 121.519 42.2099C118.703 38.9673 115.119 37.3459 110.767 37.3459C106.159 37.3459 102.532 39.0953 99.8869 42.5939C97.2416 46.0926 95.8336 50.1886 95.6629 54.8819L95.5349 59.3619C95.5349 64.1406 96.9002 67.9806 99.6309 70.8819C102.447 73.7833 106.031 75.2339 110.383 75.2339C115.247 75.2339 119.002 73.5273 121.647 70.1139C124.378 66.7006 125.743 62.0499 125.743 56.1619Z" fill="white"/>
<path d="M155.628 15.5859V0.481934H169.58V15.5859H155.628ZM178.54 84.9619H147.82V74.4659H156.396V38.1139H147.308V27.4899H169.964V74.4659H178.54V84.9619Z" fill="white"/>
<path d="M237.931 64.3539C237.334 69.4739 235.072 74.4233 231.147 79.2019C227.222 83.8953 220.907 86.2419 212.203 86.2419C204.011 86.2419 197.312 83.7673 192.107 78.8179C186.987 73.8686 184.427 66.6579 184.427 57.1859C184.427 47.8846 187.072 40.4179 192.363 34.7859C197.739 29.1539 204.736 26.3379 213.355 26.3379C216.768 26.3379 220.182 26.7646 223.595 27.6179C227.008 28.4713 230.379 29.8793 233.707 31.8419L236.011 47.9699L225.003 49.1219L223.083 39.6499C219.926 38.1139 216.598 37.3459 213.099 37.3459C203.542 37.3459 198.763 43.7459 198.763 56.5459C198.763 69.0046 203.67 75.2339 213.483 75.2339C220.651 75.2339 224.96 70.8819 226.411 62.1779L237.931 64.3539Z" fill="white"/>
<path d="M298.577 67.4259C298.065 72.4606 295.59 76.8553 291.153 80.6099C286.715 84.3646 280.614 86.2419 272.849 86.2419C264.486 86.2419 257.617 83.8099 252.241 78.9459C246.865 73.9966 244.177 66.7433 244.177 57.1859C244.177 48.3966 246.609 41.0579 251.473 35.1699C256.422 29.2819 263.291 26.3379 272.081 26.3379C280.017 26.3379 286.289 28.7273 290.897 33.5059C295.59 38.1993 297.979 44.1726 298.065 51.4259C298.065 53.8153 297.809 56.3753 297.297 59.1059H258.513C259.281 69.8579 264.401 75.2339 273.873 75.2339C278.31 75.2339 281.467 74.1673 283.345 72.0339C285.307 69.9006 286.587 67.6393 287.185 65.2499L298.577 67.4259ZM283.985 50.6579C284.326 47.2446 283.515 44.0446 281.553 41.0579C279.675 37.9859 276.475 36.4499 271.953 36.4499C267.857 36.4499 264.742 37.8153 262.609 40.5459C260.475 43.2766 259.153 46.6473 258.641 50.6579H283.985Z" fill="white"/>
<path d="M355.734 67.8099C355.734 73.7833 353.259 78.3486 348.31 81.5059C343.446 84.6633 337.216 86.2419 329.622 86.2419C325.526 86.2419 321.387 85.7726 317.206 84.8339C313.11 83.8953 309.398 82.4873 306.07 80.6099L308.118 65.7619L318.87 66.7859L318.742 74.2099C320.363 74.8926 322.07 75.3619 323.862 75.6179C325.739 75.8739 327.403 76.0019 328.854 76.0019C332.352 76.0019 335.382 75.4046 337.942 74.2099C340.587 72.9299 341.91 71.0526 341.91 68.5779C341.91 66.1886 340.715 64.4819 338.326 63.4579C336.022 62.4339 333.12 61.6659 329.622 61.1539C326.123 60.5566 322.624 59.7886 319.126 58.8499C315.627 57.8259 312.683 56.2046 310.294 53.9859C307.99 51.6819 306.838 48.2686 306.838 43.7459C306.838 37.0899 309.355 32.5246 314.39 30.0499C319.51 27.5753 324.886 26.3379 330.518 26.3379C337.942 26.3379 344.939 28.0873 351.51 31.5859L352.918 45.7939L342.166 47.0739L341.014 38.4979C337.686 37.2179 334.315 36.5779 330.902 36.5779C328.256 36.5779 325.995 37.1326 324.118 38.2419C322.326 39.2659 321.43 40.9299 321.43 43.2339C321.43 45.6233 322.582 47.2873 324.886 48.2259C327.19 49.1646 330.048 49.9326 333.462 50.5299C336.875 51.0419 340.288 51.8099 343.702 52.8339C347.115 53.7726 349.974 55.3939 352.278 57.6979C354.582 59.9166 355.734 63.2873 355.734 67.8099Z" fill="white"/>
<path d="M62.8722 67.3024C62.2887 75.5591 58.9464 81.6961 52.8453 85.7133C46.8293 89.7365 39.0972 91.4142 29.6487 90.7464C24.0307 90.3494 14.381 85.7746 12.6517 84.0585C10.9224 82.3423 8.30196 79.7412 6.29819 74.4677C4.29443 69.1941 5.12276 61.9376 5.12276 61.9376C5.12276 61.9376 6.50623 67.3433 8.4643 69.601C10.4224 71.8586 12.3367 74.08 14.4018 75.0404C16.4669 76.0008 20.6221 76.8488 22.8903 77.4368C25.2496 77.9458 27.4507 78.2724 29.4936 78.4168C34.4306 78.7657 38.5706 78.2884 41.9135 76.9849C45.3475 75.6022 47.2329 72.5275 47.5699 67.7607C46.7082 61.7971 42.2255 60.646 40.6943 59.9606C39.1631 59.2751 34.5727 57.3892 29.787 56.11C25.9256 55.0672 20.9281 53.1526 17.0177 51.5931C11.3477 48.5191 10.1746 46.2975 7.74638 43.1318C5.3182 39.9661 4.36254 34.723 4.77164 28.9348C5.38529 20.2524 9.8709 12.9131 16.009 9.58285C22.2382 6.17353 27.9719 5.38028 35.2923 5.89767C40.3996 6.25864 47.0886 11.5653 49.3005 12.9721C51.5124 14.379 47.5621 12.8676 48.3975 13.3981C49.2329 13.9286 46.5723 12.2084 46.5723 12.2084C46.5723 12.2084 48.6085 10.9145 44.8909 10.6517C41.1734 10.389 47.9229 13.2997 47.7174 13.35C47.5118 13.4004 46.1096 12.7466 45.2891 12.6886C44.4686 12.6306 41.7176 13.6346 36.2248 14.7321C30.7321 15.8297 29.4448 15.9759 26.6598 18.6556C23.8748 21.3354 21.4455 23.4406 21.1928 27.0157C20.898 31.1866 22.3138 34.1525 25.4401 35.9133C28.6575 37.595 32.2761 39.0484 36.2957 40.2735C39.7315 41.2862 43.6174 42.5874 47.9535 44.1771C52.2895 45.7667 55.9576 48.3357 58.9575 51.8841C62.0486 55.3533 63.3535 60.4927 62.8722 67.3024Z" fill="#B22512"/>
<path d="M13.0834 15.9291C10.4549 17.456 5.7662 23.1675 8.03955 33.7984C7.50877 30.3355 7.77445 21.9136 13.0834 15.9291Z" fill="#D9D9D9"/>
<path d="M51.2414 51.8752C55.3702 56.1406 61.9026 67.7556 55.0018 80.0928C58.6273 75.325 62.9508 63.0066 51.2414 51.8752Z" fill="#D9D9D9"/>
<path d="M44.1718 12.4537C44.1799 12.3392 41.8108 11.1975 41.9731 11.0735C42.1355 10.9496 44.2507 11.3372 44.2507 11.3372C44.2507 11.3372 42.6634 9.901 42.7454 9.71439C42.8274 9.52778 45.105 10.4988 45.105 10.4988L42.7203 8.61782C42.66 8.58856 44.3056 8.64921 47.1913 10.6463C50.9729 13.2633 51.1454 17.3628 52.5079 19.275C53.5979 20.8048 58.5399 19.2488 60.2931 18.106C59.7886 18.9752 57.8888 20.8678 54.3256 21.4846C49.8717 22.2556 50.8771 17.8682 48.1709 14.9378C46.5101 13.1395 46.027 13.4191 45.6167 13.3901C45.2063 13.3611 43.6142 13.6999 43.6142 13.6999C43.6142 13.6999 40.663 13.9505 40.6378 13.7588C40.6126 13.5672 43.07 12.9702 43.07 12.9702C43.07 12.9702 41.8765 12.441 41.887 12.2922C41.8975 12.1434 44.1637 12.5681 44.1718 12.4537Z" fill="#3A886D" stroke="#68883A" stroke-width="0.2"/>
</svg>
